#!OML:ASF F:\VICON\USERDATA\INSTALL\rory3\rory3.ASF
:FULLY-SPECIFIED
:DEGREES
629
root 5.23644 16.9441 1.90868 7.49605 -14.2527 -7.08938
lowerback 22.1332 -0.37235 3.60281
upperback 5.47842 0.357855 1.36631
thorax -6.34213 0.107294 -0.672051
lowerneck -14.6341 -0.450517 -1.97445
upperneck 37.4606 0.2692 -1.3626
head 15.6835 -0.429928 -0.205567
rclavicle 1.19271e-014 -2.78299e-014
rhumerus -34.1582 -7.78874 -17.0994
rradius 33.84
rwrist 5.45352
rhand -19.8169 -44.4408
rfingers 7.12502
rthumb 6.51659 -74.3206
lclavicle 1.19271e-014 -2.78299e-014
lhumerus -35.6258 6.53002 11.9045
lradius 28.2994
lwrist 16.1215
lhand -24.3914 -32.571
lfingers 7.12502
lthumb 2.09938 -2.60154
rfemur -101.116 0.637951 27.0204
rtibia 95.9909
rfoot 48.2487 1.94664
rtoes -5.42318
lfemur -28.9784 5.49023 -23.9384
ltibia 41.7293
lfoot -17.564 9.7635
ltoes 14.6025
630
root 5.23679 16.9439 1.9088 7.48311 -14.2932 -7.1244
lowerback 22.0692 -0.364775 3.59362
upperback 5.54637 0.359617 1.36924
thorax -6.2349 0.110147 -0.664215
lowerneck -14.7639 -0.425267 -1.91529
upperneck 37.4478 0.305081 -1.39514
head 15.7083 -0.41129 -0.224221
rclavicle -2.06736e-014 4.37326e-015
rhumerus -34.0622 -7.78069 -17.2531
rradius 34.0244
rwrist 5.25003
rhand -19.6307 -45.0434
rfingers 7.12502
rthumb 6.69632 -74.9176
lclavicle -2.06736e-014 4.37326e-015
lhumerus -35.6076 6.79211 11.8482
lradius 28.2385
lwrist 15.9637
lhand -24.1785 -33.8118
lfingers 7.12502
lthumb 2.30501 -3.84448
rfemur -101.091 0.705523 27.0341
rtibia 96.0071
rfoot 48.2024 2.22377
rtoes -5.76903
lfemur -28.9461 5.54933 -23.9036
ltibia 41.7222
lfoot -17.5929 9.65102
ltoes 14.972
631
root 5.23792 16.9407 1.90586 7.45551 -14.2967 -7.07317
lowerback 22.0467 -0.347844 3.55002
upperback 5.58858 0.368146 1.35684
thorax -6.17732 0.115806 -0.655151
lowerneck -14.7642 -0.437627 -1.89059
upperneck 37.3083 0.284816 -1.41097
head 15.6384 -0.416128 -0.237288
rclavicle 2.14687e-014 -1.63003e-014
rhumerus -34.0897 -8.03012 -17.1412
rradius 33.7347
rwrist 5.41915
rhand -20.6642 -43.8769
rfingers 7.12502
rthumb 5.69857 -73.7802
lclavicle 2.14687e-014 -1.63003e-014
lhumerus -35.619 6.90377 11.8836
lradius 28.2176
lwrist 15.7819
lhand -24.1364 -34.1252
lfingers 7.12502
lthumb 2.34563 -4.1584
rfemur -101.124 0.713153 26.9695
rtibia 96.033
rfoot 48.2662 2.33303
rtoes -6.15678
lfemur -28.9367 5.57503 -23.9655
ltibia 41.7198
lfoot -17.6183 9.56274
ltoes 14.8766
632
root 5.2423 16.939 1.90841 7.40188 -14.2523 -6.95431
lowerback 21.9732 -0.355493 3.52874
upperback 5.61822 0.347533 1.33382
thorax -6.10777 0.107472 -0.662475
lowerneck -14.6804 -0.448787 -1.91953
upperneck 37.182 0.277742 -1.41887
head 15.5555 -0.421895 -0.234929
rclavicle -1.49089e-014 5.1684e-015
rhumerus -34.1301 -7.96762 -17.1385
rradius 33.7951
rwrist 5.07184
rhand -20.7794 -43.8743
rfingers 7.12502
rthumb 5.58732 -73.7806
lclavicle -1.49089e-014 5.1684e-015
lhumerus -35.5513 6.98024 11.9663
lradius 28.0248
lwrist 15.6366
lhand -24.1852 -34.7458
lfingers 7.12502
lthumb 2.29851 -4.77843
rfemur -101.166 0.586928 26.8519
rtibia 96.1051
rfoot 48.3453 2.03671
rtoes -5.62765
lfemur -28.8804 5.58233 -24.1241
ltibia 41.7211
lfoot -17.6426 9.61062
ltoes 14.3732
633
root 5.2455 16.9396 1.91256 7.36534 -14.2433 -6.97144
lowerback 21.9298 -0.367697 3.57955
upperback 5.63542 0.340995 1.34613
thorax -6.0664 0.104586 -0.676393
lowerneck -14.6064 -0.460933 -1.93855
upperneck 37.1443 0.276446 -1.4547
head 15.5194 -0.429309 -0.246332
rclavicle -1.59028e-014 -7.15625e-015
rhumerus -34.1466 -7.87343 -17.1495
rradius 33.8241
rwrist 5.0545
rhand -20.8603 -43.9572
rfingers 7.12502
rthumb 5.50927 -73.8655
lclavicle -1.59028e-014 -7.15625e-015
lhumerus -35.4292 7.10262 12.0014
lradius 27.6865
lwrist 15.2769
lhand -25.162 -32.6694
lfingers 7.12502
lthumb 1.35512 -2.69399
rfemur -101.127 0.528689 26.8698
rtibia 96.1551
rfoot 48.2613 2.2979
rtoes -5.76521
lfemur -28.8345 5.68691 -24.1292
ltibia 41.7478
lfoot -17.7081 9.56116
ltoes 14.2454
634
root 5.24605 16.9383 1.91397 7.35246 -14.2352 -7.07143
lowerback 21.9312 -0.382663 3.66184
upperback 5.68039 0.338093 1.35485
thorax -6.01742 0.103312 -0.713099
lowerneck -14.6794 -0.489908 -1.93912
upperneck 37.16 0.215462 -1.4019
head 15.5443 -0.448059 -0.234653
rclavicle 5.36719e-015 1.98785e-015
rhumerus -34.1396 -7.93471 -17.2052
rradius 33.7173
rwrist 5.24554
rhand -21.1646 -43.8965
rfingers 7.12502
rthumb 5.21544 -73.8123
lclavicle 5.36719e-015 1.98785e-015
lhumerus -35.3823 7.1574 12.0019
lradius 27.6633
lwrist 15.0635
lhand -26.3589 -28.4041
lfingers 7.12502
lthumb 0.199076 1.57559
rfemur -101.074 0.534873 26.9661
rtibia 96.1717
rfoot 48.1156 2.88197
rtoes -6.50508
lfemur -28.836 5.83236 -24.0277
ltibia 41.7966
lfoot -17.7481 9.42053
ltoes 14.5243
